<svg id="Layer_2_copy" height="512" viewBox="0 0 512 512" width="512" xmlns="http://www.w3.org/2000/svg" data-name="Layer 2 copy"><path d="m484.451 25.774a92.108 92.108 0 0 0 -130.108 0l11.314 11.314a76 76 0 0 1 107.48 107.48l11.314 11.314a92.106 92.106 0 0 0 0-130.108z"/><path d="m288 216h-40a8 8 0 0 0 -8 8v99.357l-50.125 28.643h-29.875v-8h6a34.038 34.038 0 0 0 34-34v-54a8 8 0 0 0 -8-8h-56a24.027 24.027 0 0 0 -24 24v80h-11.471l-44.712-74.52-7.845-94.145a8 8 0 0 0 -6.032-7.1l-32-8a8 8 0 0 0 -9.94 7.765v112.474a8 8 0 0 0 .756 3.395l55.244 117.912v102.219h16v-104a8 8 0 0 0 -.756-3.395l-55.244-117.913v-100.446l16.5 4.126 7.524 90.292a8.005 8.005 0 0 0 1.112 3.452l48 80a8 8 0 0 0 6.864 3.884h33.129l11.085 72.607v39.393h16v-40a7.926 7.926 0 0 0 -.092-1.207l-10.808-70.793h46.686a8 8 0 0 0 3.969-1.054l56-32a8 8 0 0 0 4.031-6.946v-96h24v116.087l-68.911 53.6a8 8 0 0 0 -3.089 6.313v104h16v-100.087l68.911-53.6a8 8 0 0 0 3.089-6.313v-128a8 8 0 0 0 -8-8zm-152 48h48v8h-32a8 8 0 0 0 -4.8 1.6l-19.2 14.4v-16a8.009 8.009 0 0 1 8-8zm-8 44 26.667-20h29.333v22a18.021 18.021 0 0 1 -18 18h-14a8 8 0 0 0 -8 8v16h-16z"/><path d="m80.591 194.455 45.255 45.255a8 8 0 0 0 11.314 0l29.1-29.1a91.5 91.5 0 0 0 30.088 5.086 92.419 92.419 0 0 0 65.268-26.9l-11.316-11.313a76.391 76.391 0 0 1 -77.8 18.372l-1.382-1.382-.017-.019-5.656-5.656 39.6-39.6-11.314-11.314-39.6 39.6-11.313-11.314 39.6-39.6-11.318-11.311-39.6 39.6-7.06-7.061a76.39 76.39 0 0 1 18.377-77.798l-11.317-11.311a92.448 92.448 0 0 0 -21.82 95.359l-29.089 29.093a8 8 0 0 0 0 11.314zm22.628-11.314 16.97 16.971 11.311-11.312-16.971-16.972 5.657-5.657 29.638 29.629 4.307 4.307-22.631 22.632-33.938-33.939z"/><path d="m194.626 101.721c6.8.166 11.3.275 16.456 5.437s5.272 9.656 5.438 16.459c.193 7.884.433 17.7 10.12 27.384s19.5 9.927 27.383 10.119c6.8.166 11.3.276 16.459 5.438l11.318-11.315c-9.687-9.687-19.5-9.927-27.383-10.119-6.8-.166-11.3-.276-16.459-5.438s-5.272-9.656-5.438-16.459c-.193-7.884-.433-17.7-10.12-27.384s-19.5-9.925-27.382-10.117c-6.8-.166-11.3-.275-16.456-5.437s-5.271-9.655-5.437-16.458c-.192-7.883-.432-17.694-10.118-27.382l-11.319 11.315c5.162 5.161 5.271 9.655 5.438 16.458.192 7.883.432 17.694 10.118 27.382s19.498 9.924 27.382 10.117z"/><path d="m350.851 64.249c.192 7.884.432 17.7 10.119 27.383s19.5 9.925 27.381 10.117c6.8.166 11.3.275 16.457 5.436s5.272 9.657 5.438 16.46c.192 7.884.432 17.7 10.12 27.384s19.5 9.927 27.383 10.119c6.8.166 11.3.276 16.46 5.438l11.313-11.314c-9.687-9.687-19.5-9.927-27.383-10.119-6.8-.166-11.3-.276-16.459-5.437s-5.272-9.657-5.438-16.461c-.192-7.883-.432-17.694-10.12-27.383s-19.5-9.925-27.381-10.117c-6.8-.166-11.3-.275-16.457-5.437s-5.271-9.655-5.437-16.457c-.192-7.884-.432-17.7-10.118-27.383l-11.315 11.314c5.162 5.161 5.272 9.655 5.437 16.457z"/><path d="m501.056 400.562-41.571 16.455-75.485-131.155v-141.862a8 8 0 0 0 -2.538-5.846l-137-128-10.924 11.692 134.462 125.628v140.526a8 8 0 0 0 1.066 3.99l80 139a8 8 0 0 0 9.878 3.448l32.037-12.682-24.164 72.494-78.036-21.761 31.141-17.517a8 8 0 0 0 2.991-11l-87.413-150.131v-133.341a8 8 0 0 0 -2.472-5.782l-159.5-152.5-11.056 11.564 157.028 150.137v132.081a8 8 0 0 0 1.087 4.025l84.413 144.983-40.923 23.02a8 8 0 0 0 1.773 14.679l104 29a7.991 7.991 0 0 0 9.738-5.176l32-96a8 8 0 0 0 -10.534-9.969z"/><path d="m440 56v-24h-16v19.719l-20.437 13.625 8.875 13.313 24-16a8 8 0 0 0 3.562-6.657z"/><path d="m458.422 88h21.578v-16h-24a8 8 0 0 0 -4.437 1.344l-24 16 8.875 13.313z"/><path d="m416 200h16v16h-16z"/><path d="m472 192h16v16h-16z"/><path d="m432 248h16v16h-16z"/><path d="m104 16h16v16h-16z"/></svg>