<svg version="1.1" xmlns="http://www.w3.org/2000/svg" xmlns:xlink="http://www.w3.org/1999/xlink">
    <symbol id="cloud" viewBox="0 0 64 64">
       
       <path id="cloud" d="m484.451 25.774a92.108 92.108 0 0 0 -130.108 0l11.314 11.314a76 76 0 0 1 107.48 107.48l11.314 11.314a92.106 92.106 0 0 0 0-130.108z"/>
       <path d="m288 216h-40a8 8 0 0 0 -8 8v99.357l-50.125 28.643h-29.875v-8h6a34.038 34.038 0 0 0 34-34v-54a8 8 0 0 0 -8-8h-56a24.027 24.027 0 0 0 -24 24v80h-11.471l-44.712-74.52-7.845-94.145a8 8 0 0 0 -6.032-7.1l-32-8a8 8 0 0 0 -9.94 7.765v112.474a8 8 0 0 0 .756 3.395l55.244 117.912v102.219h16v-104a8 8 0 0 0 -.756-3.395l-55.244-117.913v-100.446l16.5 4.126 7.524 90.292a8.005 8.005 0 0 0 1.112 3.452l48 80a8 8 0 0 0 6.864 3.884h33.129l11.085 72.607v39.393h16v-40a7.926 7.926 0 0 0 -.092-1.207l-10.808-70.793h46.686a8 8 0 0 0 3.969-1.054l56-32a8 8 0 0 0 4.031-6.946v-96h24v116.087l-68.911 53.6a8 8 0 0 0 -3.089 6.313v104h16v-100.087l68.911-53.6a8 8 0 0 0 3.089-6.313v-128a8 8 0 0 0 -8-8zm-152 48h48v8h-32a8 8 0 0 0 -4.8 1.6l-19.2 14.4v-16a8.009 8.009 0 0 1 8-8zm-8 44 26.667-20h29.333v22a18.021 18.021 0 0 1 -18 18h-14a8 8 0 0 0 -8 8v16h-16z"/>
       <path d="m80.591 194.455 45.255 45.255a8 8 0 0 0 11.314 0l29.1-29.1a91.5 91.5 0 0 0 30.088 5.086 92.419 92.419 0 0 0 65.268-26.9l-11.316-11.313a76.391 76.391 0 0 1 -77.8 18.372l-1.382-1.382-.017-.019-5.656-5.656 39.6-39.6-11.314-11.314-39.6 39.6-11.313-11.314 39.6-39.6-11.318-11.311-39.6 39.6-7.06-7.061a76.39 76.39 0 0 1 18.377-77.798l-11.317-11.311a92.448 92.448 0 0 0 -21.82 95.359l-29.089 29.093a8 8 0 0 0 0 11.314zm22.628-11.314 16.97 16.971 11.311-11.312-16.971-16.972 5.657-5.657 29.638 29.629 4.307 4.307-22.631 22.632-33.938-33.939z"/>
       <path d="m194.626 101.721c6.8.166 11.3.275 16.456 5.437s5.272 9.656 5.438 16.459c.193 7.884.433 17.7 10.12 27.384s19.5 9.927 27.383 10.119c6.8.166 11.3.276 16.459 5.438l11.318-11.315c-9.687-9.687-19.5-9.927-27.383-10.119-6.8-.166-11.3-.276-16.459-5.438s-5.272-9.656-5.438-16.459c-.193-7.884-.433-17.7-10.12-27.384s-19.5-9.925-27.382-10.117c-6.8-.166-11.3-.275-16.456-5.437s-5.271-9.655-5.437-16.458c-.192-7.883-.432-17.694-10.118-27.382l-11.319 11.315c5.162 5.161 5.271 9.655 5.438 16.458.192 7.883.432 17.694 10.118 27.382s19.498 9.924 27.382 10.117z"/>
       <path d="m350.851 64.249c.192 7.884.432 17.7 10.119 27.383s19.5 9.925 27.381 10.117c6.8.166 11.3.275 16.457 5.436s5.272 9.657 5.438 16.46c.192 7.884.432 17.7 10.12 27.384s19.5 9.927 27.383 10.119c6.8.166 11.3.276 16.46 5.438l11.313-11.314c-9.687-9.687-19.5-9.927-27.383-10.119-6.8-.166-11.3-.276-16.459-5.437s-5.272-9.657-5.438-16.461c-.192-7.883-.432-17.694-10.12-27.383s-19.5-9.925-27.381-10.117c-6.8-.166-11.3-.275-16.457-5.437s-5.271-9.655-5.437-16.457c-.192-7.884-.432-17.7-10.118-27.383l-11.315 11.314c5.162 5.161 5.272 9.655 5.437 16.457z"/>
       <path d="m501.056 400.562-41.571 16.455-75.485-131.155v-141.862a8 8 0 0 0 -2.538-5.846l-137-128-10.924 11.692 134.462 125.628v140.526a8 8 0 0 0 1.066 3.99l80 139a8 8 0 0 0 9.878 3.448l32.037-12.682-24.164 72.494-78.036-21.761 31.141-17.517a8 8 0 0 0 2.991-11l-87.413-150.131v-133.341a8 8 0 0 0 -2.472-5.782l-159.5-152.5-11.056 11.564 157.028 150.137v132.081a8 8 0 0 0 1.087 4.025l84.413 144.983-40.923 23.02a8 8 0 0 0 1.773 14.679l104 29a7.991 7.991 0 0 0 9.738-5.176l32-96a8 8 0 0 0 -10.534-9.969z"/>
       <path d="m440 56v-24h-16v19.719l-20.437 13.625 8.875 13.313 24-16a8 8 0 0 0 3.562-6.657z"/>
       <path d="m458.422 88h21.578v-16h-24a8 8 0 0 0 -4.437 1.344l-24 16 8.875 13.313z"/>
       <path d="m416 200h16v16h-16z"/>
       <path d="m472 192h16v16h-16z"/>
       <path d="m432 248h16v16h-16z"/>
       <path d="m104 16h16v16h-16z"/>
       
    </symbol>
 
    <symbol id="cloud-computing" viewBox="0 0 64 64">
        <g id="Refresh_1_">
            <path fill="#42adf4" d="M48.7919998,22.6142502c-0.4766006,0-0.9570999,0.0224991-1.4336014,0.0664005
                c-2.7841988-7.0195007-9.6025848-11.6797009-17.2167988-11.6797009c-9.6581993,0-17.5868988,7.3096008-18.4403992,16.8076
                C5.1699009,28.2822495,0.0010008,33.7431488,0.0010008,40.3867493c0,6.9550018,5.6629996,12.6123009,12.6240005,12.6123009
                h36.1669998c8.3857002,0,15.2070007-6.8154984,15.2070007-15.1924019
                C63.9990005,29.4296494,57.1777,22.6142502,48.7919998,22.6142502z M48.7919998,51.0009499H12.625001
                c-5.8594003,0-10.6260004-4.7616997-10.6260004-10.6142006c0-5.8516006,4.7665997-10.6132984,10.6406002-10.6132984
                c0.5362139,0,0.9765997-0.4229012,0.9990997-0.9580002c0.3603001-8.8691998,7.6093006-15.8164005,16.5028992-15.8164005
                c7.0342159,0,13.3076,4.4589996,15.6093998,11.0946999c0.1581993,0.4550991,0.6268997,0.7313995,1.089817,0.6620998
                c0.6444817-0.0946999,1.3007812-0.1434994,1.9511833-0.1434994c7.2831993,0,13.2089996,5.9188995,13.2089996,13.1942978
                S56.0751991,51.0009499,48.7919998,51.0009499z"/>
            <path fill="#42adf4" d="M32.4968147,25.40415l0.7804871-0.6707001c0.4189987-0.3603992,0.4667969-0.9913006,0.1075134-1.4102001
                c-0.3604164-0.419899-0.9922142-0.4657993-1.4102154-0.107399l-2.8262005,2.4277
                c-0.4188995,0.3603992-0.4667988,0.9911995-0.107399,1.4101982l2.4277,2.8271008
                c0.1982994,0.2304993,0.4776001,0.3486004,0.7588005,0.3486004c0.2314987,0,0.4628983-0.0790997,0.6513977-0.2411995
                c0.4189148-0.3603001,0.4668007-0.9912014,0.1074028-1.4101009l-1.0659008-1.2411003
                c3.7255001,0.3786011,6.6420994,3.5335007,6.6420994,7.3573017c0,4.0780983-3.3174019,7.3964996-7.3955002,7.3964996
                s-7.3955002-3.3184013-7.3955002-7.3964996c0-0.5527-0.4473-1-1-1c-0.5527992,0-1,0.4473-1,1
                c0,5.1815987,4.2147999,9.3964996,9.3955002,9.3964996c5.1805992,0,9.3955002-4.214901,9.3955002-9.3964996
                C40.5625,29.9661503,37.0483017,26.0535507,32.4968147,25.40415z"/>
        </g>
    </symbol>
   
   
    <symbol id="Capa_1" viewBox="0 0 64 64">

<g>
<path d="m417.397 0h-322.794c-16.5 0-29.925 13.424-29.925 29.925v202.265c0 4.142 3.358 7.5 7.5 7.5s7.5-3.358 7.5-7.5v-202.265c0-8.23 6.695-14.925 14.925-14.925h322.794c8.229 0 14.925 6.695 14.925 14.925v361.527c0 .822-.041 1.638-.108 2.448h-77.571c-17.109 0-31.029 13.919-31.029 31.028v71.965c-.81.066-1.625.108-2.447.108h-226.564c-8.229 0-14.925-6.695-14.925-14.925v-219.886c0-4.142-3.358-7.5-7.5-7.5s-7.5 3.358-7.5 7.5v219.885c0 16.5 13.424 29.925 29.925 29.925h226.565c11.797 0 22.891-4.576 31.253-12.889l81.724-76.125c.065-.06.129-.122.191-.185 8.374-8.374 12.986-19.508 12.986-31.351v-361.525c0-16.501-13.424-29.925-29.925-29.925zm-75.294 488.223c-.065.06-.129.122-.191.185-1.038 1.038-2.14 1.988-3.297 2.848v-66.328c0-8.838 7.19-16.028 16.029-16.028h71.93c-.835 1.124-1.753 2.196-2.756 3.208z"/>
<path d="m373.88 286.605c6.929-12.002 6.929-26.332 0-38.334l-84.682-146.673c-6.929-12.001-19.34-19.167-33.198-19.167s-26.269 7.166-33.198 19.167l-84.682 146.673c-6.929 12.002-6.929 26.332 0 38.334 6.929 12.001 19.339 19.167 33.198 19.167h33.548c4.142 0 7.5-3.358 7.5-7.5s-3.358-7.5-7.5-7.5h-33.548c-8.436 0-15.99-4.361-20.208-11.667s-4.218-16.028 0-23.334l84.682-146.673c4.218-7.305 11.772-11.667 20.208-11.667s15.99 4.362 20.208 11.667l84.682 146.673c4.218 7.306 4.218 16.028 0 23.334-4.218 7.305-11.772 11.667-20.208 11.667h-101.256c-4.142 0-7.5 3.358-7.5 7.5s3.358 7.5 7.5 7.5h101.256c13.858 0 26.268-7.165 33.198-19.167z"/>
<path d="m257.582 276.004c14.147 0 25.657-11.51 25.657-25.657s-11.51-25.657-25.657-25.657-25.657 11.51-25.657 25.657 11.51 25.657 25.657 25.657zm0-36.314c5.876 0 10.657 4.781 10.657 10.657s-4.781 10.657-10.657 10.657-10.657-4.781-10.657-10.657 4.781-10.657 10.657-10.657z"/>
<path d="m254.133 214.448h6.899c9.828 0 17.824-7.996 17.824-17.825v-38.204c0-9.828-7.996-17.824-17.824-17.824h-6.899c-9.828 0-17.824 7.996-17.824 17.824v38.204c-.001 9.829 7.995 17.825 17.824 17.825zm-2.825-56.029c0-1.557 1.267-2.824 2.824-2.824h6.899c1.557 0 2.824 1.267 2.824 2.824v38.204c0 1.558-1.267 2.825-2.824 2.825h-6.899c-1.557 0-2.824-1.267-2.824-2.825z"/>
<path d="m356.102 345.333c0-4.142-3.358-7.5-7.5-7.5h-185.204c-4.142 0-7.5 3.358-7.5 7.5s3.358 7.5 7.5 7.5h185.204c4.142 0 7.5-3.358 7.5-7.5z"/>
<path d="m163.398 369.833c-4.142 0-7.5 3.358-7.5 7.5s3.358 7.5 7.5 7.5h80.41c4.142 0 7.5-3.358 7.5-7.5s-3.358-7.5-7.5-7.5z"/>
</g>

    </symbol>
</svg>